<?xml version="1.0" standalone="no"?>
<!DOCTYPE svg PUBLIC "-//W3C//DTD SVG 20010904//EN"
 "http://www.w3.org/TR/2001/REC-SVG-20010904/DTD/svg10.dtd">
<svg version="1.0" xmlns="http://www.w3.org/2000/svg"
 width="128.000000pt" height="128.000000pt" viewBox="0 0 128.000000 128.000000"
 preserveAspectRatio="xMidYMid meet">

<g transform="translate(0.000000,128.000000) scale(0.100000,-0.100000)"
fill="#000000" stroke="none">
<path d="M515 1024 c-99 -24 -207 -45 -240 -48 -85 -5 -174 -33 -203 -65 -45
-49 -45 -62 -3 -212 44 -150 92 -382 111 -523 12 -99 20 -119 53 -141 20 -13
38 -10 192 30 94 24 258 66 364 94 239 62 243 64 271 197 27 129 55 207 111
312 27 51 49 99 49 107 0 23 -37 55 -64 55 -23 0 -25 5 -31 65 -7 64 -9 66
-44 81 -33 14 -43 14 -117 -1 l-82 -17 -31 23 c-17 12 -31 31 -31 41 0 22 -55
49 -97 47 -15 -1 -109 -21 -208 -45z m265 21 c26 -14 30 -21 30 -60 0 -38 -3
-45 -22 -50 -50 -11 -73 -10 -70 4 4 19 -16 31 -51 31 -44 0 -67 -17 -67 -50
0 -23 -5 -30 -29 -35 l-29 -6 -7 -126 c-7 -121 -7 -127 13 -144 21 -17 21 -17
-7 -22 -16 -3 -40 -9 -55 -13 -25 -6 -26 -5 -26 42 0 69 9 94 32 94 17 0 18 7
16 108 -3 103 -4 107 -26 110 -58 8 -130 -80 -153 -186 -7 -33 -16 -52 -25
-52 -8 0 -14 9 -14 20 0 11 -3 19 -8 19 -30 -5 -32 3 -32 111 0 61 4 110 8
110 5 0 17 -6 27 -14 30 -21 126 9 109 35 -4 7 296 86 334 88 13 1 36 -6 52
-14z m320 -105 c6 -10 10 -39 10 -65 0 -40 -3 -47 -26 -55 -43 -17 -57 -13
-52 15 3 15 -1 30 -11 39 -19 16 -99 26 -104 12 -2 -5 -3 7 -4 26 -1 35 -1 35
61 50 68 16 110 9 126 -22z m-102 -95 c15 -34 15 -55 0 -55 -7 0 -22 -3 -34
-6 -17 -4 -22 1 -32 32 -14 45 -9 54 27 54 20 0 31 -7 39 -25z m-398 -45 c0
-33 -3 -40 -19 -40 -28 0 -34 15 -26 60 6 35 9 39 26 30 14 -8 19 -22 19 -50z
m598 -23 c2 -9 -12 -43 -32 -74 -36 -60 -88 -184 -101 -241 -14 -65 -20 -52
-80 172 -22 81 -24 100 -13 107 17 12 48 11 48 0 0 -5 16 -19 36 -31 30 -19
39 -21 61 -11 22 10 25 16 20 47 -5 30 -3 36 16 44 28 11 41 7 45 -13z"/>
</g>
</svg>
