<?xml version="1.0" standalone="no"?>
<!DOCTYPE svg PUBLIC "-//W3C//DTD SVG 20010904//EN"
 "http://www.w3.org/TR/2001/REC-SVG-20010904/DTD/svg10.dtd">
<svg version="1.0" xmlns="http://www.w3.org/2000/svg"
 width="128.000000pt" height="128.000000pt" viewBox="0 0 128.000000 128.000000"
 preserveAspectRatio="xMidYMid meet">

<g transform="translate(0.000000,128.000000) scale(0.100000,-0.100000)"
fill="#000000" stroke="none">
<path d="M505 1128 c-54 -19 -90 -54 -253 -253 -159 -192 -162 -197 -162 -243
0 -70 35 -192 62 -218 13 -12 155 -79 316 -148 321 -138 344 -144 417 -103 37
20 49 40 172 287 l133 265 -3 115 c-2 123 -12 153 -60 184 -30 20 -499 126
-551 125 -22 0 -54 -5 -71 -11z m205 -52 c60 -15 95 -28 95 -36 0 -9 43 -25
119 -46 65 -17 122 -38 127 -45 17 -28 8 -63 -41 -154 -27 -51 -50 -97 -50
-103 0 -5 12 -14 28 -20 24 -8 29 -18 40 -70 l12 -61 -65 -143 c-109 -236
-123 -242 -342 -144 -81 37 -158 74 -170 81 -14 10 -25 32 -33 70 -6 30 -16
55 -22 55 -5 0 6 21 25 47 94 129 185 268 179 274 -4 3 -68 25 -142 48 -74 24
-139 46 -143 51 -13 12 124 172 168 197 51 29 95 28 215 -1z"/>
<path d="M536 993 c-8 -16 -28 -41 -45 -57 -34 -33 -32 -46 7 -46 19 0 30 7
37 23 7 15 18 21 35 20 44 -3 58 8 27 21 -26 11 -27 14 -12 26 15 12 19 12 30
-3 16 -22 51 -22 59 -1 8 21 11 19 -46 33 -67 16 -76 14 -92 -16z"/>
<path d="M693 674 c-10 -29 -65 -107 -87 -125 -20 -16 -18 -18 48 -38 65 -20
69 -20 82 -4 25 34 17 45 -26 38 -41 -7 -52 3 -26 24 8 7 25 9 39 6 17 -5 26
-2 30 8 4 10 -3 17 -20 21 -20 6 -23 9 -13 21 16 19 40 19 40 1 0 -8 7 -17 16
-20 21 -8 20 -9 38 18 15 24 15 25 -37 42 -28 9 -58 19 -64 21 -7 3 -16 -3
-20 -13z"/>
</g>
</svg>
