<?xml version="1.0" standalone="no"?>
<!DOCTYPE svg PUBLIC "-//W3C//DTD SVG 20010904//EN"
 "http://www.w3.org/TR/2001/REC-SVG-20010904/DTD/svg10.dtd">
<svg version="1.0" xmlns="http://www.w3.org/2000/svg"
 width="128.000000pt" height="128.000000pt" viewBox="0 0 128.000000 128.000000"
 preserveAspectRatio="xMidYMid meet">

<g transform="translate(0.000000,128.000000) scale(0.100000,-0.100000)"
fill="#000000" stroke="none">
<path d="M875 1221 c-73 -19 -142 -79 -171 -147 -21 -49 -47 -52 -85 -9 -38
43 -101 80 -149 89 -44 8 -142 -17 -182 -46 -51 -36 -98 -164 -68 -183 20 -13
51 7 70 46 27 52 32 49 15 -8 -8 -27 -73 -238 -143 -470 -71 -233 -127 -425
-124 -428 9 -9 205 -5 252 5 25 6 55 12 66 15 18 4 23 15 28 62 4 32 12 93 18
136 10 75 11 77 38 77 30 0 27 13 56 -242 l6 -58 132 0 c72 0 148 5 168 10 31
9 42 8 63 -6 22 -14 32 -15 63 -6 20 6 89 13 152 15 127 4 151 12 170 56 10
26 10 36 -7 68 -33 64 -127 94 -220 70 -40 -10 -42 -1 -10 62 29 61 29 157 -1
221 l-21 45 47 7 c34 5 51 3 63 -8 22 -20 50 -18 56 5 3 11 14 22 25 24 16 5
19 11 13 29 -4 13 -6 33 -6 44 1 30 -23 48 -46 35 -13 -7 -23 -5 -36 7 -17 15
-20 14 -52 -21 -39 -42 -78 -49 -115 -19 l-22 18 35 26 c19 15 46 30 61 34 32
8 60 46 76 102 13 52 5 99 -23 130 l-20 22 26 0 c72 0 55 135 -23 175 -35 18
-133 27 -175 16z m124 -21 c61 -17 109 -79 96 -121 -10 -29 -23 -23 -76 33
l-48 51 -90 -6 c-50 -4 -91 -5 -91 -2 0 6 59 36 90 46 36 11 80 10 119 -1z
m-474 -89 c39 -18 77 -51 57 -51 -5 0 -29 7 -52 15 -89 31 -201 7 -259 -56
-36 -40 -39 -30 -8 26 43 78 168 109 262 66z m432 -14 c21 -19 48 -40 59 -48
19 -12 5 -14 -119 -12 -77 1 -142 5 -145 8 -10 9 22 56 48 70 14 8 46 14 72
15 40 0 54 -5 85 -33z m-428 -63 c11 -11 -10 -12 -84 -6 -63 5 -74 8 -50 13
29 7 125 2 134 -7z m496 -19 c43 -17 58 -53 52 -118 -6 -64 -34 -101 -79 -105
-30 -3 -40 3 -68 34 -75 86 -79 165 -9 193 35 14 65 13 104 -4z m-798 -490
c-115 -413 -124 -440 -146 -443 -29 -5 -42 -55 119 468 144 470 142 464 147
435 1 -11 -53 -218 -120 -460z m472 404 c45 -28 53 -30 83 -20 31 11 35 10 61
-19 16 -19 27 -42 27 -60 0 -35 -17 -42 -120 -44 -87 -1 -110 17 -118 93 -4
46 1 81 12 81 3 0 27 -14 55 -31z m-214 -321 c4 -25 1 -28 -21 -28 -24 0 -25
1 -18 68 8 94 16 106 25 42 5 -30 11 -67 14 -82z m255 -9 c0 -20 11 -57 25
-83 14 -26 25 -58 25 -72 0 -22 -4 -25 -27 -22 -26 3 -28 7 -34 63 -4 33 -12
77 -18 98 -7 21 -9 52 -5 69 l6 32 14 -25 c7 -13 13 -40 14 -60z m330 68 c0
-7 -5 -18 -12 -25 -15 -15 -64 -16 -73 -2 -3 6 2 10 12 10 11 0 28 7 39 15 24
18 34 19 34 2z m-102 -86 c50 -92 50 -121 3 -146 -23 -11 -31 -12 -39 -2 -19
22 -52 121 -52 154 0 43 17 86 33 80 6 -2 32 -41 55 -86z m-470 -26 c-2 -3
-46 -13 -96 -24 l-92 -18 0 23 c0 24 2 24 97 24 53 0 94 -2 91 -5z m480 -310
c40 -43 44 -78 7 -69 -30 8 -33 -6 -4 -24 20 -13 20 -14 3 -33 -18 -19 -18
-19 -40 8 -25 31 -43 27 -23 -6 7 -11 11 -23 8 -26 -35 -34 -111 136 -81 181
22 33 84 18 130 -31z m192 -12 c59 -31 77 -53 35 -46 -27 6 -35 -11 -9 -21 8
-3 12 -10 9 -16 -4 -7 -14 -5 -28 5 -23 16 -57 20 -57 7 0 -5 12 -13 28 -20
24 -10 22 -11 -23 -6 -73 8 -82 12 -88 42 -3 15 -8 37 -12 49 -6 17 -2 22 17
26 52 10 77 6 128 -20z"/>
</g>
</svg>
